<?xml version="1.0" encoding="utf-8"?>
<!-- Generator: Adobe Illustrator 24.2.3, SVG Export Plug-In . SVG Version: 6.00 Build 0)  -->
<svg version="1.1" id="Layer_1" xmlns="http://www.w3.org/2000/svg" xmlns:xlink="http://www.w3.org/1999/xlink" x="0px" y="0px"
	 width="696.7753px" height="226.9498px" viewBox="0 0 696.7753 226.9498" style="enable-background:new 0 0 696.7753 226.9498;"
	 xml:space="preserve">
<style type="text/css">
	.st0{clip-path:url(#SVGID_2_);fill:#141B2D;}
	.st1{clip-path:url(#SVGID_4_);fill:#141B2D;}
	.st2{clip-path:url(#SVGID_6_);fill:#141B2D;}
	.st3{clip-path:url(#SVGID_8_);fill:#141B2D;}
	.st4{fill-rule:evenodd;clip-rule:evenodd;fill:#141B2D;}
</style>
<g>
	<g>
		<defs>
			<polygon id="SVGID_1_" points="95.2733,2 95.2733,45.0599 27.8745,72.1027 27.8745,89.7844 95.6891,67.1104 95.6891,176.3208 
				58.3676,176.3208 58.036,166.7751 27.1009,167.5935 26.8194,176.3208 0,176.3208 0,145.5337 67.6063,136.1728 67.6063,115.5788 
				0.4158,129.3082 0.2075,52.3407 			"/>
		</defs>
		<use xlink:href="#SVGID_1_"  style="overflow:visible;fill:#141B2D;"/>
		<clipPath id="SVGID_2_">
			<use xlink:href="#SVGID_1_"  style="overflow:visible;"/>
		</clipPath>
		<rect y="2" class="st0" width="95.6891" height="174.3208"/>
	</g>
</g>
<g>
	<g>
		<defs>
			<polygon id="SVGID_3_" points="98.727,2 98.727,176.3208 193.5845,176.3208 193.5845,128.684 165.2936,124.5238 
				165.2936,142.2055 126.3937,136.3809 126.3937,56.2931 166.5417,72.3105 166.5417,90.2003 194.2084,98.9372 194.2084,52.3407 			
				"/>
		</defs>
		<use xlink:href="#SVGID_3_"  style="overflow:visible;fill:#141B2D;"/>
		<clipPath id="SVGID_4_">
			<use xlink:href="#SVGID_3_"  style="overflow:visible;"/>
		</clipPath>
		<rect x="98.727" y="2" class="st1" width="95.4814" height="174.3208"/>
	</g>
</g>
<g>
	<g>
		<defs>
			<path id="SVGID_5_" d="M546.8312,174.4536l43.3667-150.8488h62.2134l42.364,150.8488h-43.3666l-6.7785-26.352h-47.5506
				l-6.8817,26.352H546.8312z M604.4797,117.3927h33.0264l-14.974-62.4909h-2.628L604.4797,117.3927z M438.4837,174.4536V23.6048
				H539.949v33.6138h-61.0039v29.2572h57.4419v33.1991h-57.4419v54.7787H438.4837z M399.5172,67.6149l7.2193,5.548v0.1052
				L399.5172,67.6149z M365.8601,174.4536V51.892l40.8764,31.6301v90.9315H365.8601z M214.2159,127.7672h38.8012v1.5217
				c0,5.4638,1.4524,9.2679,4.3577,11.4123c2.9052,2.1787,8.0232,3.2505,15.3893,3.2505h10.1324
				c6.1557,0,10.4437-0.8297,12.8996-2.4897c2.4551-1.6257,3.6998-4.5649,3.6998-8.7497v-6.5704
				c0-3.5621-0.9675-6.1558-2.9392-7.6774c-1.9367-1.5562-6.3627-2.7663-13.2446-3.562l-32.8196-3.5623
				c-12.2074-1.3487-21.1643-5.1528-26.801-11.4812c-5.6372-6.3286-8.4379-15.7005-8.4379-28.1154v-9.3379
				c0-7.0194,1.1058-13.2792,3.3543-18.8124c2.213-5.4989,5.4635-10.029,9.7177-13.5218c3.6312-3.0436,8.0581-5.2223,13.2452-6.4667
				c5.1874-1.2447,12.9685-1.8678,23.2733-1.8678h24.2433c15.0775,0,26.5935,3.043,34.5478,9.1302
				c7.988,6.0862,11.9656,14.8699,11.9656,26.3865v10.34h-38.8021v-1.626c0-4.53-1.0717-7.6768-3.1813-9.4405
				c-2.1447-1.7637-5.9828-2.6285-11.516-2.6285h-9.3373c-6.4321,0-10.8247,0.7611-13.2458,2.2827
				c-2.3856,1.5213-3.596,4.1499-3.596,7.8503v6.2937c0,5.5335,5.4295,8.9226,16.323,10.1333l29.8792,3.354
				c12.9339,1.4867,22.5479,5.2217,28.9111,11.2739c6.3635,6.052,9.5448,14.559,9.5448,25.4875v14.4898
				c0,12.4849-3.8733,22.4788-11.6544,29.9838c-7.7811,7.5038-18.2247,11.2733-31.3316,11.2733h-32.9573
				c-17.6028,0-30.4327-3.0435-38.421-9.1298c-7.9892-6.0865-12.0002-15.7697-12.0002-29.0143L214.2159,127.7672L214.2159,127.7672z
				"/>
		</defs>
		<use xlink:href="#SVGID_5_"  style="overflow:visible;fill:#141B2D;"/>
		<clipPath id="SVGID_6_">
			<use xlink:href="#SVGID_5_"  style="overflow:visible;"/>
		</clipPath>
		<rect x="214.2159" y="21.737" class="st2" width="480.5594" height="154.584"/>
	</g>
</g>
<g>
	<g>
		<defs>
			<polygon id="SVGID_7_" points="399.5427,67.6345 406.7365,73.1629 406.7365,23.6048 365.8601,23.6048 365.8601,41.2567 			"/>
		</defs>
		<use xlink:href="#SVGID_7_"  style="overflow:visible;fill:#141B2D;"/>
		<clipPath id="SVGID_8_">
			<use xlink:href="#SVGID_7_"  style="overflow:visible;"/>
		</clipPath>
		<rect x="365.8601" y="23.6048" class="st3" width="40.8764" height="49.5581"/>
	</g>
</g>
<rect x="248.8493" y="207.5129" class="st4" width="67.3713" height="2.3641"/>
<path class="st4" d="M573.916,226.3951h3.6303v-15.9838c0-4.4872,2.8233-7.5126,6.6557-7.5126c3.8322,0,6.0506,2.622,6.0506,7.3111
	v16.1853h3.6302v-17.1939c0-5.8991-3.2269-9.5797-8.5714-9.5797c-3.9333,0-6.3031,2.168-7.7652,4.79v-4.2857h-3.6303v26.2693
	H573.916z M556.2184,223.6724c-4.4878,0-7.967-4.3866-7.967-10.2861v-0.2523c0-5.8487,3.2774-10.2353,7.9166-10.2353
	c4.4875,0,8.0168,4.3866,8.0168,10.2858v0.2523C564.1849,219.2356,560.857,223.6724,556.2184,223.6724z M556.168,226.9498
	c6.7563,0,11.6974-5.8992,11.6974-13.5635v-0.3025c0-7.664-4.8906-13.4623-11.647-13.4623c-6.7569,0-11.698,5.8488-11.698,13.5125
	v0.3532C544.5204,221.1515,549.411,226.9498,556.168,226.9498z M534.5371,226.3951h3.6303v-26.2693h-3.6303V226.3951z
	 M534.3355,194.7307h4.0337v-4.2858h-4.0337V194.7307z M524.4525,226.7984c1.5132,0,2.7737-0.3529,3.9334-0.9073v-3.1261
	c-1.0588,0.4536-2.0673,0.7058-3.0762,0.7058c-2.2688,0-3.7814-1.0085-3.7814-3.7817v-16.3366h6.8576v-3.2267h-6.8576v-7.664
	h-3.6303v7.664h-3.1765v3.2267h3.1765v16.9418C517.898,224.9834,520.7216,226.7984,524.4525,226.7984z M502.9736,226.9498
	c3.8823,0,6.5041-1.7144,8.4705-3.9328l-2.1175-2.4202c-1.664,1.7144-3.5799,3.0251-6.1515,3.0251
	c-4.4373,0-8.0677-3.9829-8.0677-10.1851v-0.2523c0-6.1007,3.5295-10.2354,7.9166-10.2354c2.7227,0,4.5882,1.412,6.1512,2.975
	l2.1682-2.7227c-2.0168-2.0168-4.538-3.5799-8.2689-3.5799c-6.5551,0-11.698,5.5968-11.698,13.563v0.3529
	C491.3765,221.5044,496.368,226.9498,502.9736,226.9498z M473.9306,226.8993c3.9331,0,6.3029-2.1679,7.765-4.7899v4.2857h3.6303
	v-26.2693h-3.6303v16.0339c0,4.4875-2.8233,7.4622-6.6555,7.4622c-3.8324,0-6.0508-2.6217-6.0508-7.3108v-16.1853h-3.6303v17.244
	C465.359,223.2186,468.5859,226.8993,473.9306,226.8993z M448.014,226.3951h3.6304v-12.5042c0-6.7567,3.9328-10.1855,8.8239-10.1855
	h0.2016v-3.9328c-4.2863-0.2015-7.4625,2.4707-9.0255,6.1515v-5.7983h-3.6304V226.3951z M438.232,226.7984
	c1.5131,0,2.7737-0.3529,3.9333-0.9073v-3.1261c-1.059,0.4536-2.0673,0.7058-3.0761,0.7058c-2.2689,0-3.7817-1.0085-3.7817-3.7817
	v-16.3366h6.8578v-3.2267h-6.8578v-7.664h-3.6301v7.664h-3.1765v3.2267h3.1765v16.9418
	C431.6774,224.9834,434.5007,226.7984,438.232,226.7984z M416.45,226.8489c4.7398,0,8.5215-2.8738,8.5215-7.5631v-0.1007
	c0-3.9832-3.0254-5.7988-7.3619-7.7147c-3.5798-1.5126-5.8487-2.6221-5.8487-4.8405v-0.1009c0-2.0673,1.7646-3.6805,4.5377-3.6805
	c2.3199,0,4.5887,1.0083,6.6056,2.4704l1.7648-2.7731c-2.2186-1.6637-5.2942-2.8233-8.2695-2.8233
	c-4.689,0-8.168,2.8737-8.168,7.1594v0.1009c0,4.0842,3.3276,5.7479,7.5127,7.5637c3.5297,1.4621,5.6979,2.6722,5.6979,4.9916
	v0.0504c0,2.4704-2.0169,4.0839-4.8915,4.0839c-2.6217,0-5.1931-1.1092-7.6637-3.1765l-1.916,2.6725
	C409.7441,225.5883,413.223,226.8489,416.45,226.8489z M382.2644,226.3951h3.6304v-15.9838c0-4.4872,2.8236-7.5126,6.656-7.5126
	c3.8319,0,6.0503,2.622,6.0503,7.3111v16.1853h3.6303v-17.1939c0-5.8991-3.227-9.5797-8.5714-9.5797
	c-3.9334,0-6.3031,2.168-7.7652,4.79v-4.2857h-3.6304V226.3951z M364.5669,223.6724c-4.4878,0-7.9668-4.3866-7.9668-10.2861v-0.2523
	c0-5.8487,3.2772-10.2353,7.9163-10.2353c4.4876,0,8.017,4.3866,8.017,10.2858v0.2523
	C372.5334,219.2356,369.2055,223.6724,364.5669,223.6724z M364.5164,226.9498c6.7564,0,11.6975-5.8992,11.6975-13.5635v-0.3025
	c0-7.664-4.8906-13.4623-11.647-13.4623c-6.7567,0-11.698,5.8488-11.698,13.5125v0.3532
	C352.8689,221.1515,357.7598,226.9498,364.5164,226.9498z M338.1968,226.8993c4.8401,0,8.2184-1.9159,11.1931-4.8404l-2.2688-2.6218
	c-2.5212,2.4203-5.0925,3.9328-8.7228,3.9328c-6.5047,0-11.4962-5.8992-11.4962-14.572v-0.2016
	c0-8.5209,4.9915-14.4706,11.4962-14.4706c3.5799,0,6.2521,1.5631,8.4705,3.6805l2.3196-2.8737
	c-2.7732-2.5716-5.8992-4.3362-10.7396-4.3362c-8.824,0-15.4795,7.3613-15.4795,18.0505v0.3024
	C322.9693,219.6891,329.4734,226.8993,338.1968,226.8993z"/>
<rect x="600.7564" y="207.5129" class="st4" width="67.3707" height="2.3641"/>
<polygon class="st4" points="55.5574,179.7977 29.6456,179.7187 30.0036,168.9756 55.1458,168.3322 "/>
<polygon class="st4" points="296.4858,179.7977 257.6812,179.7187 258.2172,168.9756 295.869,168.3322 "/>
</svg>
